# xmcd
#
# Track frame offsets: 
#        150
#        17038
#        30116
#        43668
#        60152
#        72256
#        89385
#        104643
#        116843
#        131063
#        149369
#        165010
#        175946
#        192685
#        203081
#        221029
#        239892
#        257345
#        296246
#        309042
#
# Disc length: 4389 seconds
#
# Revision: 0
# Processed by: cddbd v1.5.2PL0 Copyright (c) Steve Scherf et al.
# Submitted via: ExactAudioCopy v1.3
#
DISCID=23112314
DTITLE=The Junkers - How the Midwest Was Won - Disc 2
DYEAR=1900
DGENRE=Country
TTITLE0=Pray for Me, Mama (I'm a Gypsy Now)
TTITLE1=Folsom Prison Blues
TTITLE2=Ring of Fire
TTITLE3=(What's So Funny 'Bout) Peace, Love, and Understanding
TTITLE4=Tie One On
TTITLE5=He Stopped Loving Her Today
TTITLE6=Footprints in the Snow
TTITLE7=One Woman Man
TTITLE8=I Gotta Get Drunk
TTITLE9=That's Why I Take Pills
TTITLE10=Never Been to Spain
TTITLE11=Let's Commit Adultery
TTITLE12=Note to Self
TTITLE13=The Race Is On
TTITLE14=Rhinestone Cowboy
TTITLE15=Grizzly
TTITLE16=I Saw the Light
TTITLE17=War Pigs
TTITLE18=It's Hard to Win a Woman (When You're Working for the Man)
TTITLE19=Whiskey River
EXTD=
EXTT0=
EXTT1=
EXTT2=
EXTT3=
EXTT4=
EXTT5=
EXTT6=
EXTT7=
EXTT8=
EXTT9=
EXTT10=
EXTT11=
EXTT12=
EXTT13=
EXTT14=
EXTT15=
EXTT16=
EXTT17=
EXTT18=
EXTT19=
PLAYORDER=
